GRF
version=1
nRows=30
nColumns=19
inDegrees=no
endheader
time	left_ground_force_vx	left_ground_force_vy	left_ground_force_vz	left_ground_force_px	left_ground_force_py	left_ground_force_pz	left_ground_torque_x	left_ground_torque_y	left_ground_torque_z	right_ground_force_vx	right_ground_force_vy	right_ground_force_vz	right_ground_force_px	right_ground_force_py	right_ground_force_pz	right_ground_torque_x	right_ground_torque_y	right_ground_torque_z
      0.88000000	     -0.14785548	      0.52020685	      0.02774957	     -0.39179641	      0.00000000	     -0.35558247	      0.00000000	     -0.03407336	     -0.00000000	     -0.00000000	      0.00000000	      0.00000000	      0.23618253	      0.00000000	     -0.31741109	      0.00000000	     -0.00000000	     -0.00000000
      0.89000000	     -0.34568806	      1.30872387	      0.06615654	     -0.39183963	      0.00000000	     -0.35568302	      0.00000000	     -0.07935309	     -0.00000000	     -0.00000000	      0.00000000	      0.00000000	      0.23618253	      0.00000000	     -0.31741109	      0.00000000	     -0.00000000	     -0.00000000
      0.90000000	     -0.73469007	      3.01507067	      0.14332022	     -0.39192529	      0.00000000	     -0.35589352	      0.00000000	     -0.16783390	     -0.00000000	     -0.00000000	      0.00000000	      0.00000000	      0.23618253	      0.00000000	     -0.31741109	      0.00000000	     -0.00000000	     -0.00000000
      0.91000000	     -1.42181451	      6.37292426	      0.28204335	     -0.39207685	      0.00000000	     -0.35629251	      0.00000000	     -0.32286617	     -0.00000000	     -0.00000000	      0.00000000	      0.00000000	      0.23618253	      0.00000000	     -0.31741109	      0.00000000	     -0.00000000	     -0.00000000
      0.92000000	     -2.51218936	     12.38715715	      0.50374851	     -0.39231445	      0.00000000	     -0.35697747	      0.00000000	     -0.56631574	     -0.00000000	     -0.00000000	      0.00000000	      0.00000000	      0.23618253	      0.00000000	     -0.31741109	      0.00000000	     -0.00000000	     -0.00000000
      0.93000000	     -4.06909192	     22.20398240	      0.81505817	     -0.39263959	      0.00000000	     -0.35804299	      0.00000000	     -0.90927331	     -0.00000000	     -0.00000000	      0.00000000	      0.00000000	      0.23618253	      0.00000000	     -0.31741109	      0.00000000	     -0.00000000	     -0.00000000
      0.94000000	     -6.07897785	     36.83360482	      1.19026453	     -0.39301553	      0.00000000	     -0.35954621	      0.00000000	     -1.34463721	     -0.00000000	     -0.00000000	      0.00000000	      0.00000000	      0.23618253	      0.00000000	     -0.31741109	      0.00000000	     -0.00000000	     -0.00000000
      0.95000000	     -8.45055666	     56.79309804	      1.55764745	     -0.39335172	      0.00000000	     -0.36147226	      0.00000000	     -1.84851154	     -0.00000000	     -0.00000000	      0.00000000	      0.00000000	      0.23618253	      0.00000000	     -0.31741109	      0.00000000	     -0.00000000	     -0.00000000
      0.96000000	    -11.06216839	     81.82425163	      1.80036827	     -0.39350269	      0.00000000	     -0.36371881	      0.00000000	     -2.39339067	     -0.00000000	     -0.00000000	      0.00000000	      0.00000000	      0.23618253	      0.00000000	     -0.31741109	      0.00000000	     -0.00000000	     -0.00000000
      0.97000000	    -13.83414601	    110.85249772	      1.77890229	     -0.39328818	      0.00000000	     -0.36611329	      0.00000000	     -2.96669092	     -0.00000000	     -0.00000000	      0.00000000	      0.00000000	      0.23618253	      0.00000000	     -0.31741109	      0.00000000	     -0.00000000	     -0.00000000
      0.98000000	    -16.77039320	    142.24834825	      1.37141491	     -0.39253198	      0.00000000	     -0.36845953	      0.00000000	     -3.58038857	     -0.00000000	     -0.00000000	      0.00000000	      0.00000000	      0.23618253	      0.00000000	     -0.31741109	      0.00000000	     -0.00000000	     -0.00000000
      0.99000000	    -19.92207869	    174.28169009	      0.51658805	     -0.39110713	      0.00000000	     -0.37059307	      0.00000000	     -4.26016141	     -0.00000000	     -0.00000000	      0.00000000	      0.00000000	      0.23618253	      0.00000000	     -0.31741109	      0.00000000	     -0.00000000	     -0.00000000
      1.00000000	    -23.28191143	    205.54110554	     -0.76151162	     -0.38897053	      0.00000000	     -0.37242005	      0.00000000	     -5.01667558	     -0.00000000	     -0.00000000	      0.00000000	      0.00000000	      0.23618253	      0.00000000	     -0.31741109	      0.00000000	     -0.00000000	     -0.00000000
      1.01000000	    -26.67906205	    235.11802776	     -2.35999449	     -0.38617334	      0.00000000	     -0.37392579	      0.00000000	     -5.81713030	     -0.00000000	     -0.00000000	      0.00000000	      0.00000000	      0.23618253	      0.00000000	     -0.31741109	      0.00000000	     -0.00000000	     -0.00000000
      1.02000000	    -29.75737190	    262.51077525	     -4.13301671	     -0.38284281	      0.00000000	     -0.37515782	      0.00000000	     -6.57814321	     -0.00000000	     -0.00000000	      0.00000000	      0.00000000	      0.23618253	      0.00000000	     -0.31741109	      0.00000000	     -0.00000000	     -0.00000000
      1.03000000	    -32.06721113	    287.37074724	     -5.94025617	     -0.37914146	      0.00000000	     -0.37619889	      0.00000000	     -7.18775362	     -0.00000000	     -0.00000000	      0.00000000	      0.00000000	      0.23618253	      0.00000000	     -0.31741109	      0.00000000	     -0.00000000	     -0.00000000
      1.04000000	    -33.22501044	    309.27919329	     -7.68680000	     -0.37521759	      0.00000000	     -0.37714409	      0.00000000	     -7.54513358	     -0.00000000	     -0.00000000	      0.00000000	      0.00000000	      0.23618253	      0.00000000	     -0.31741109	      0.00000000	     -0.00000000	     -0.00000000
      1.05000000	    -33.05336796	    327.68415073	     -9.34047231	     -0.37116332	      0.00000000	     -0.37808753	      0.00000000	     -7.59638944	     -0.00000000	     -0.00000000	      0.00000000	      0.00000000	      0.23618253	      0.00000000	     -0.31741109	      0.00000000	     -0.00000000	     -0.00000000
      1.06000000	    -31.63397482	    342.00781664	    -10.92515381	     -0.36699324	      0.00000000	     -0.37911614	      0.00000000	     -7.34973498	     -0.00000000	     -0.00000000	      0.00000000	      0.00000000	      0.23618253	      0.00000000	     -0.31741109	      0.00000000	     -0.00000000	     -0.00000000
      1.07000000	    -29.26183047	    351.83969088	    -12.49793926	     -0.36264841	      0.00000000	     -0.38030569	      0.00000000	     -6.86710847	     -0.00000000	     -0.00000000	      0.00000000	      0.00000000	      0.23618253	      0.00000000	     -0.31741109	      0.00000000	     -0.00000000	     -0.00000000
      1.08000000	    -26.33887620	    357.10476930	    -14.12020792	     -0.35802194	      0.00000000	     -0.38171547	      0.00000000	     -6.24104072	     -0.00000000	     -0.00000000	      0.00000000	      0.00000000	      0.23618253	      0.00000000	     -0.31741109	      0.00000000	     -0.00000000	     -0.00000000
      1.09000000	    -23.26151140	    358.13131368	    -15.83022158	     -0.35299565	      0.00000000	     -0.38338058	      0.00000000	     -5.56897080	     -0.00000000	     -0.00000000	      0.00000000	      0.00000000	      0.23618253	      0.00000000	     -0.31741109	      0.00000000	     -0.00000000	     -0.00000000
      1.10000000	    -20.34164630	    355.60365550	    -17.62218847	     -0.34747646	      0.00000000	     -0.38530344	      0.00000000	     -4.93347552	     -0.00000000	     -0.00000000	      0.00000000	      0.00000000	      0.23618253	      0.00000000	     -0.31741109	      0.00000000	     -0.00000000	     -0.00000000
      1.11000000	    -17.77387272	    350.43612786	    -19.43578902	     -0.34142391	      0.00000000	     -0.38744718	      0.00000000	     -4.39108325	     -0.00000000	     -0.00000000	      0.00000000	      0.00000000	      0.23618253	      0.00000000	     -0.31741109	      0.00000000	     -0.00000000	     -0.00000000
      1.12000000	    -15.63986689	    343.62419119	    -21.15961228	     -0.33486524	      0.00000000	     -0.38973488	      0.00000000	     -3.96851714	     -0.00000000	     -0.00000000	      0.00000000	      0.00000000	      0.23618253	      0.00000000	     -0.31741109	      0.00000000	     -0.00000000	     -0.00000000
      1.13000000	    -13.93286084	    336.11786401	    -22.64975749	     -0.32789809	      0.00000000	     -0.39205723	      0.00000000	     -3.66429174	     -0.00000000	     -0.00000000	      0.00000000	      0.00000000	      0.23618253	      0.00000000	     -0.31741109	      0.00000000	     -0.00000000	     -0.00000000
      1.14000000	    -12.58768690	    328.73598125	    -23.76069750	     -0.32068194	      0.00000000	     -0.39428932	      0.00000000	     -3.45423292	     -0.00000000	     -0.00000000	      0.00000000	      0.00000000	      0.23618253	      0.00000000	     -0.31741109	      0.00000000	     -0.00000000	     -0.00000000
      1.15000000	    -11.50871733	    322.11693707	    -24.38098612	     -0.31342015	      0.00000000	     -0.39631343	      0.00000000	     -3.29996951	     -0.00000000	     -0.00000000	      0.00000000	      0.00000000	      0.23618253	      0.00000000	     -0.31741109	      0.00000000	     -0.00000000	     -0.00000000
      1.16000000	    -10.59315682	    316.69367843	    -24.46369866	     -0.30633444	      0.00000000	     -0.39804210	      0.00000000	     -3.15901590	     -0.00000000	     -0.00000000	      0.00000000	      0.00000000	      0.23618253	      0.00000000	     -0.31741109	      0.00000000	     -0.00000000	     -0.00000000
      1.17000000	     -9.74875735	    312.68599144	    -24.04206562	     -0.29963569	      0.00000000	     -0.39943426	      0.00000000	     -2.99424643	     -0.00000000	     -0.00000000	      0.00000000	      0.00000000	      0.23618253	      0.00000000	     -0.31741109	      0.00000000	     -0.00000000	     -0.00000000
